<svg width="36" height="36" viewBox="0 0 36 36" fill="none" xmlns="http://www.w3.org/2000/svg">
<path d="M32 8H4C3.46957 8 2.96086 8.21071 2.58579 8.58579C2.21071 8.96086 2 9.46957 2 10V26C2 26.5304 2.21071 27.0391 2.58579 27.4142C2.96086 27.7893 3.46957 28 4 28H32C32.5304 28 33.0391 27.7893 33.4142 27.4142C33.7893 27.0391 34 26.5304 34 26V10C34 9.46957 33.7893 8.96086 33.4142 8.58579C33.0391 8.21071 32.5304 8 32 8ZM19 13H21V15H19V13ZM19 17H21V19H19V17ZM15 13H17V15H15V13ZM15 17H17V19H15V17ZM11 13H13V15H11V13ZM9 24H7V22H9V24ZM9 19H7V17H9V19ZM9 15H7V13H9V15ZM11 17H13V19H11V17ZM24.88 24H11.13V22H24.88V24ZM25 19H23V17H25V19ZM25 15H23V13H25V15ZM28.94 24H27V22H28.94V24ZM29 19H27V17H29V19ZM29 15H27V13H29V15Z" fill="black"/>
</svg>
