<svg width="36" height="36" viewBox="0 0 36 36" fill="none" xmlns="http://www.w3.org/2000/svg">
<path fill-rule="evenodd" clip-rule="evenodd" d="M34.9991 16.8498C33.4115 7.98301 29.8619 5.36761 27.9737 5.36761C25.0271 5.36761 24.2711 7.55821 17.9999 7.63201C11.7287 7.55821 10.9727 5.36761 8.02609 5.36761C6.13789 5.36761 2.58649 7.98301 0.998891 16.8498C0.093491 21.9114 -0.889309 29.4678 1.45249 30.375C4.36669 31.5036 5.35489 28.6812 8.55529 26.2962C11.8043 23.8788 13.3631 23.31 17.9999 23.31C22.6367 23.31 24.1955 23.8788 27.4445 26.2962C30.6449 28.6794 31.6331 31.5036 34.5473 30.375C36.8891 29.4678 35.9063 21.9132 34.9991 16.8498ZM10.7999 18C9.84511 18 8.92944 17.6207 8.25431 16.9456C7.57918 16.2705 7.19989 15.3548 7.19989 14.4C7.19989 13.4452 7.57918 12.5296 8.25431 11.8544C8.92944 11.1793 9.84511 10.8 10.7999 10.8C11.7547 10.8 12.6703 11.1793 13.3455 11.8544C14.0206 12.5296 14.3999 13.4452 14.3999 14.4C14.3999 15.3548 14.0206 16.2705 13.3455 16.9456C12.6703 17.6207 11.7547 18 10.7999 18ZM23.3999 18C22.9225 18 22.4647 17.8104 22.1271 17.4728C21.7895 17.1352 21.5999 16.6774 21.5999 16.2C21.5999 15.7226 21.7895 15.2648 22.1271 14.9272C22.4647 14.5897 22.9225 14.4 23.3999 14.4C23.8773 14.4 24.3351 14.5897 24.6727 14.9272C25.0102 15.2648 25.1999 15.7226 25.1999 16.2C25.1999 16.6774 25.0102 17.1352 24.6727 17.4728C24.3351 17.8104 23.8773 18 23.3999 18ZM26.9999 14.4C26.5225 14.4 26.0647 14.2104 25.7271 13.8728C25.3895 13.5352 25.1999 13.0774 25.1999 12.6C25.1999 12.1226 25.3895 11.6648 25.7271 11.3272C26.0647 10.9897 26.5225 10.8 26.9999 10.8C27.4773 10.8 27.9351 10.9897 28.2727 11.3272C28.6102 11.6648 28.7999 12.1226 28.7999 12.6C28.7999 13.0774 28.6102 13.5352 28.2727 13.8728C27.9351 14.2104 27.4773 14.4 26.9999 14.4Z" fill="black"/>
</svg>
