<svg width="36" height="36" viewBox="0 0 36 36" fill="none" xmlns="http://www.w3.org/2000/svg">
<g clip-path="url(#clip0_3_400)">
<path d="M17.9784 13.518C18.4399 13.518 18.8654 13.6385 19.2548 13.8795L24.0577 16.8523C24.9375 17.3879 25.7308 18.0374 26.4375 18.8006L29.5962 22.2153C30.1731 22.8312 30.3822 23.541 30.2236 24.3444L28.6659 32.64C28.5793 33.0685 28.3666 33.4267 28.0277 33.7146C27.6887 34.0025 27.2885 34.1732 26.8269 34.2268L15.4255 35.3516L7.81011 35.9944H7.61539C7.05289 35.9944 6.56612 35.8069 6.15506 35.4319C5.744 35.057 5.53847 34.6017 5.53847 34.0661C5.53847 33.5706 5.73318 33.1421 6.12261 32.7806C6.51203 32.419 6.98078 32.2048 7.52886 32.1378L13.1539 31.4951H3.46155C2.8702 31.4951 2.369 31.2942 1.95794 30.8925C1.54689 30.4908 1.35578 30.0154 1.38463 29.4664C1.41347 28.9441 1.64424 28.5089 2.07693 28.1608C2.50963 27.8126 3.00722 27.6385 3.56972 27.6385L13.1322 27.6184L1.86059 26.3329C1.26924 26.266 0.79328 26.0182 0.432703 25.5897C0.0721259 25.1612 -0.0648934 24.6725 0.0216451 24.1234C0.108184 23.6548 0.356982 23.2698 0.768039 22.9685C1.1791 22.6672 1.65145 22.5166 2.18511 22.5166H2.40145L12.8077 23.7217L5.21395 21.8336C4.66588 21.6997 4.21876 21.4219 3.87261 21.0001C3.52645 20.5782 3.39664 20.1196 3.48318 19.6242C3.56972 19.1421 3.8077 18.7504 4.19713 18.4491C4.58655 18.1478 5.03366 17.9972 5.53847 17.9972C5.62501 17.9972 5.76924 18.0106 5.97116 18.0374L15.6635 19.9656L20.3582 20.7088C20.3726 20.7088 20.3942 20.7122 20.4231 20.7189C20.4519 20.7255 20.4736 20.7289 20.488 20.7289C20.8197 20.7289 21.0397 20.5749 21.1478 20.2669C21.256 19.9589 21.1659 19.7179 20.8774 19.5438L16.8534 17.033C16.3486 16.7251 16.0457 16.2999 15.9447 15.7576C15.8438 15.2153 15.9736 14.7231 16.3341 14.2812C16.7236 13.7724 17.2716 13.518 17.9784 13.518ZM16.464 17.5754L20.488 20.0861L15.7716 19.343L15.6635 19.3028L14.8846 18.5395L9.73559 13.2769C9.72116 13.2635 9.70313 13.2401 9.6815 13.2066C9.65987 13.1732 9.64184 13.1497 9.62741 13.1363C9.28126 12.7212 9.14785 12.2525 9.22717 11.7303C9.3065 11.2081 9.57693 10.7796 10.0385 10.4448C10.4856 10.1368 10.976 10.0196 11.5096 10.0933C12.0433 10.1669 12.5048 10.3912 12.8942 10.7662L15.9664 13.7188C15.9375 13.7322 15.9015 13.7557 15.8582 13.7891C15.8149 13.8226 15.7861 13.8527 15.7716 13.8795C15.3101 14.4821 15.1442 15.1449 15.274 15.868C15.4039 16.5912 15.8005 17.1603 16.464 17.5754ZM35.6539 8.45627L35.9784 13.7992C36.0361 14.7767 35.9567 15.7609 35.7404 16.7518L34.7019 21.1507C34.5289 21.9408 34.0457 22.5233 33.2524 22.8982L30.9591 23.9828C30.988 23.1526 30.7067 22.4228 30.1154 21.7935L26.9567 18.3788C26.1923 17.562 25.3486 16.8724 24.4255 16.3099L19.6226 13.3372C19.1322 13.0292 18.5841 12.8752 17.9784 12.8752C17.2428 12.8752 16.6082 13.1229 16.0745 13.6184L10.9904 7.35153C10.6298 6.90963 10.5 6.41752 10.601 5.8752C10.7019 5.33287 10.9976 4.90772 11.488 4.59973C11.964 4.30513 12.4796 4.2114 13.0349 4.31852C13.5902 4.42565 14.0409 4.69346 14.387 5.12197L20.1418 12.1923L14.4736 3.0531C14.1707 2.58442 14.095 2.08227 14.2464 1.54664C14.3978 1.01101 14.7404 0.615978 15.274 0.361554C15.7789 0.12052 16.3017 0.080348 16.8426 0.241037C17.3834 0.401726 17.7981 0.709714 18.0865 1.165L23.3005 9.60118L20.3582 2.83215C20.1418 2.36347 20.1094 1.86801 20.2608 1.34577C20.4123 0.823535 20.7332 0.448594 21.2236 0.220951C21.7572 -0.0334734 22.3053 -0.0736457 22.8678 0.100434C23.4303 0.274514 23.8341 0.615978 24.0793 1.12483L28.2548 9.46057L30.4399 13.3975C30.5553 13.5983 30.7212 13.7155 30.9375 13.749C31.1539 13.7824 31.3486 13.7322 31.5216 13.5983C31.6947 13.4644 31.774 13.2903 31.7596 13.0761L31.5 8.57678C31.4712 8.02776 31.6587 7.55239 32.0625 7.15067C32.4664 6.74894 32.964 6.54139 33.5553 6.528C34.1178 6.528 34.601 6.71882 35.0048 7.10045C35.4087 7.48209 35.625 7.93403 35.6539 8.45627Z" fill="black"/>
</g>
<defs>
<clipPath id="clip0_3_400">
<rect width="36" height="36" fill="white"/>
</clipPath>
</defs>
</svg>
