<svg width="36" height="36" viewBox="0 0 36 36" fill="none" xmlns="http://www.w3.org/2000/svg">
<path d="M19.5 13.5C19.5 13.1022 19.658 12.7206 19.9393 12.4393C20.2206 12.158 20.6022 12 21 12C21.3978 12 21.7794 12.158 22.0607 12.4393C22.342 12.7206 22.5 13.1022 22.5 13.5V20.205L24.315 20.4L31.725 23.7C32.505 24.06 33 24.84 33 25.71V32.25C32.955 33.48 31.98 34.455 30.75 34.5H21C20.43 34.5 19.89 34.275 19.5 33.855L12.15 27.555L13.26 26.4C13.545 26.085 13.95 25.92 14.37 25.92H14.7L19.5 28.5V13.5ZM21 7.5C23.13 7.5 25.11 8.64 26.175 10.5C27.84 13.35 26.865 17.025 24 18.69V16.845C24.96 16.005 25.5 14.775 25.5 13.5C25.5 12.3065 25.0259 11.1619 24.182 10.318C23.3381 9.47411 22.1935 9 21 9C19.8065 9 18.6619 9.47411 17.818 10.318C16.9741 11.1619 16.5 12.3065 16.5 13.5C16.5 14.775 17.04 16.005 18 16.845V18.69C16.155 17.625 15 15.645 15 13.5C15 11.9087 15.6321 10.3826 16.7574 9.25736C17.8826 8.13214 19.4087 7.5 21 7.5ZM6 13.5L10.5 18H7.5V22.5H4.5V18H1.5L6 13.5ZM6 10.5L1.5 6H4.5V1.5H7.5V6H10.5L6 10.5ZM13.5 21C14.595 21 15.615 21.285 16.5 21.81V23.64C15.705 22.935 14.655 22.5 13.5 22.5C12.3065 22.5 11.1619 22.9741 10.318 23.818C9.47411 24.6619 9 25.8065 9 27C9 28.5 9.75 29.805 10.83 30.63L13.965 33H13.5C11.9087 33 10.3826 32.3679 9.25736 31.2426C8.13214 30.1174 7.5 28.5913 7.5 27C7.5 25.4087 8.13214 23.8826 9.25736 22.7574C10.3826 21.6321 11.9087 21 13.5 21Z" fill="black"/>
</svg>
